<?xml version="1.0" encoding="UTF-8"?>
<svg width="16px" height="13px" viewBox="0 0 16 13" version="1.1" xmlns="http://www.w3.org/2000/svg" xmlns:xlink="http://www.w3.org/1999/xlink">
    <!-- Generator: Sketch 48.1 (47250) - http://www.bohemiancoding.com/sketch -->
    <title>arrowthinright</title>
    <desc>Created with Sketch.</desc>
    <defs></defs>
    <g id="Desktop-HD-Copy-28" stroke="none" stroke-width="1" fill="none" fill-rule="evenodd" transform="translate(-1228.000000, -102.000000)">
        <g id="arrowthinright" transform="translate(1228.000000, 102.000000)" fill="#000000" fill-rule="nonzero">
            <path d="M15.7473684,6.90526316 L10.5052632,12.1684211 C10.3368421,12.3368421 10.1263158,12.4210526 9.91578947,12.4210526 C9.70526316,12.4210526 9.49473684,12.3368421 9.32631579,12.1684211 C8.98947368,11.8315789 8.98947368,11.3052632 9.32631579,10.9684211 L13.1368421,7.15789474 L0.842105263,7.15789474 C0.378947368,7.15789474 0,6.77894737 0,6.31578947 C0,5.85263158 0.378947368,5.47368421 0.842105263,5.47368421 L13.1368421,5.47368421 L9.30526316,1.64210526 C8.96842105,1.30526316 8.96842105,0.778947368 9.30526316,0.442105263 C9.64210526,0.105263158 10.1684211,0.105263158 10.5052632,0.442105263 L15.7473684,5.70526316 C16.0842105,6.04210526 16.0842105,6.58947368 15.7473684,6.90526316 Z" id="XMLID_512_"></path>
        </g>
    </g>
</svg>