<?xml version="1.0" encoding="UTF-8"?>
<svg width="16px" height="12px" viewBox="0 0 16 12" version="1.1" xmlns="http://www.w3.org/2000/svg" xmlns:xlink="http://www.w3.org/1999/xlink">
    <!-- Generator: Sketch 48.1 (47250) - http://www.bohemiancoding.com/sketch -->
    <title>arrowthinleft</title>
    <desc>Created with Sketch.</desc>
    <defs></defs>
    <g id="Desktop-HD-Copy-44" stroke="none" stroke-width="1" fill="none" fill-rule="evenodd" transform="translate(-1078.000000, -113.000000)">
        <g id="arrowthinleft" transform="translate(1086.000000, 119.000000) scale(-1, 1) translate(-1086.000000, -119.000000) translate(1078.000000, 113.000000)" fill="#000000" fill-rule="nonzero">
            <path d="M15.7473684,6.67118644 L10.5052632,11.7559322 C10.3368421,11.9186441 10.1263158,12 9.91578947,12 C9.70526316,12 9.49473684,11.9186441 9.32631579,11.7559322 C8.98947368,11.4305085 8.98947368,10.9220339 9.32631579,10.5966102 L13.1368421,6.91525424 L0.842105263,6.91525424 C0.378947368,6.91525424 0,6.54915254 0,6.10169492 C0,5.65423729 0.378947368,5.28813559 0.842105263,5.28813559 L13.1368421,5.28813559 L9.30526316,1.58644068 C8.96842105,1.26101695 8.96842105,0.752542373 9.30526316,0.427118644 C9.64210526,0.101694915 10.1684211,0.101694915 10.5052632,0.427118644 L15.7473684,5.51186441 C16.0842105,5.83728814 16.0842105,6.36610169 15.7473684,6.67118644 Z" id="XMLID_512_"></path>
        </g>
    </g>
</svg>