<?xml version="1.0" encoding="UTF-8"?>
<svg width="17px" height="15px" viewBox="0 0 17 15" version="1.1" xmlns="http://www.w3.org/2000/svg" xmlns:xlink="http://www.w3.org/1999/xlink">
    <!-- Generator: Sketch 48.1 (47250) - http://www.bohemiancoding.com/sketch -->
    <title>dashboardActive</title>
    <desc>Created with Sketch.</desc>
    <defs></defs>
    <g id="Desktop-HD-Copy-41" stroke="none" stroke-width="1" fill="none" fill-rule="evenodd" transform="translate(-32.000000, -182.000000)">
        <g id="dashboardActive" transform="translate(32.000000, 182.000000)" fill="#2583E8">
            <path d="M15.5833333,8.57142857 C15.5833333,4.6265375 12.412017,1.42857143 8.5,1.42857143 C4.58798302,1.42857143 1.41666667,4.6265375 1.41666667,8.57142857 L1.13686838e-13,8.57142857 C3.3158661e-14,3.83755929 3.80557963,0 8.5,0 C13.1944204,0 17,3.83755929 17,8.57142857 L15.5833333,8.57142857 Z M7.81291667,8.66642857 C7.80233514,8.63566216 7.79520729,8.6037965 7.79166667,8.57142857 L7.79166667,4.28571429 C7.79166667,3.89122518 8.1087983,3.57142857 8.5,3.57142857 C8.8912017,3.57142857 9.20833333,3.89122518 9.20833333,4.28571429 L9.20833333,8.57142857 C9.20479271,8.6037965 9.19766486,8.63566216 9.18708333,8.66642857 C10.5753217,9.01635001 11.4869232,10.3551659 11.3121111,11.7873327 C11.137299,13.2194995 9.93095022,14.2954326 8.5,14.2954326 C7.06904978,14.2954326 5.86270099,13.2194995 5.6878889,11.7873327 C5.51307681,10.3551659 6.4246783,9.01635001 7.81291667,8.66642857 Z M8.5,12.8571429 C9.2824034,12.8571429 9.91666667,12.2175496 9.91666667,11.4285714 C9.91666667,10.6395932 9.2824034,10 8.5,10 C7.7175966,10 7.08333333,10.6395932 7.08333333,11.4285714 C7.08333333,12.2175496 7.7175966,12.8571429 8.5,12.8571429 Z" id="speedo2"></path>
        </g>
    </g>
</svg>