<?xml version="1.0" encoding="UTF-8"?>
<svg width="17px" height="17px" viewBox="0 0 17 17" version="1.1" xmlns="http://www.w3.org/2000/svg" xmlns:xlink="http://www.w3.org/1999/xlink">
    <!-- Generator: Sketch 48.1 (47250) - http://www.bohemiancoding.com/sketch -->
    <title>donations</title>
    <desc>Created with Sketch.</desc>
    <defs></defs>
    <g id="Desktop-HD-Copy-41" stroke="none" stroke-width="1" fill="none" fill-rule="evenodd" transform="translate(-32.000000, -420.000000)">
        <g id="Group-11" transform="translate(32.000000, 417.000000)" fill="#000000" fill-rule="nonzero">
            <g id="donations" transform="translate(0.000000, 3.000000)">
                <path d="M16.2916667,9.20833333 L14.875,9.20833333 C14.4837983,9.20833333 14.1666667,8.8912017 14.1666667,8.5 C14.1666667,8.1087983 14.4837983,7.79166667 14.875,7.79166667 L16.2916667,7.79166667 C16.6828684,7.79166667 17,8.1087983 17,8.5 C17,8.8912017 16.6828684,9.20833333 16.2916667,9.20833333 Z M13.0999167,4.07433333 C12.856198,4.31805199 12.461052,4.31805199 12.2173333,4.07433333 C11.9736147,3.83061468 11.9736147,3.43546866 12.2173333,3.19175 L13.0999167,2.309875 C13.2574485,2.15234319 13.4870561,2.09082001 13.7022485,2.14848064 C13.917441,2.20614128 14.0855254,2.37422571 14.143186,2.58941816 C14.2008467,2.8046106 14.1393235,3.03421821 13.9817917,3.19175 L13.0999167,4.07433333 Z M8.5,12.0416667 C6.54399151,12.0416667 4.95833333,10.4560085 4.95833333,8.5 C4.95833333,6.54399151 6.54399151,4.95833333 8.5,4.95833333 C10.4560085,4.95833333 12.0416667,6.54399151 12.0416667,8.5 C12.0416667,9.4393084 11.6685279,10.3401452 11.0043365,11.0043365 C10.3401452,11.6685279 9.4393084,12.0416667 8.5,12.0416667 Z M8.5,6.375 C7.32639491,6.375 6.375,7.32639491 6.375,8.5 C6.375,9.67360509 7.32639491,10.625 8.5,10.625 C9.67360509,10.625 10.625,9.67360509 10.625,8.5 C10.625,7.32639491 9.67360509,6.375 8.5,6.375 Z M8.5,2.83333333 C8.1087983,2.83333333 7.79166667,2.5162017 7.79166667,2.125 L7.79166667,0.708333333 C7.79166667,0.317131636 8.1087983,0 8.5,0 C8.8912017,0 9.20833333,0.317131636 9.20833333,0.708333333 L9.20833333,2.125 C9.20833333,2.5162017 8.8912017,2.83333333 8.5,2.83333333 Z M3.19175,14.690125 C3.03421821,14.8476568 2.8046106,14.90918 2.58941816,14.8515194 C2.37422571,14.7938587 2.20614128,14.6257743 2.14848064,14.4105818 C2.09082001,14.1953894 2.15234319,13.9657818 2.309875,13.80825 L3.19175,12.9256667 C3.34940833,12.7680083 3.57920035,12.7064358 3.79456563,12.7641427 C4.00993091,12.8218497 4.17815034,12.9900691 4.23585729,13.2054344 C4.29356425,13.4207997 4.23199166,13.6505917 4.07433333,13.80825 L3.19175,14.690125 Z M3.19175,4.07433333 L2.309875,3.19175 C2.06635194,2.94822694 2.06635194,2.55339806 2.309875,2.309875 C2.55339806,2.06635194 2.94822694,2.06635194 3.19175,2.309875 L4.07433333,3.19175 C4.23199166,3.34940833 4.29356425,3.57920035 4.23585729,3.79456563 C4.17815034,4.00993091 4.00993091,4.17815034 3.79456563,4.23585729 C3.57920035,4.29356425 3.34940833,4.23199166 3.19175,4.07433333 Z M2.83333333,8.5 C2.83333333,8.8912017 2.5162017,9.20833333 2.125,9.20833333 L0.708333333,9.20833333 C0.317131636,9.20833333 0,8.8912017 0,8.5 C0,8.1087983 0.317131636,7.79166667 0.708333333,7.79166667 L2.125,7.79166667 C2.5162017,7.79166667 2.83333333,8.1087983 2.83333333,8.5 Z M8.5,14.1666667 C8.8912017,14.1666667 9.20833333,14.4837983 9.20833333,14.875 L9.20833333,16.2916667 C9.20833333,16.6828684 8.8912017,17 8.5,17 C8.1087983,17 7.79166667,16.6828684 7.79166667,16.2916667 L7.79166667,14.875 C7.79166667,14.4837983 8.1087983,14.1666667 8.5,14.1666667 Z M13.80825,12.9256667 L14.690125,13.80825 C14.8476568,13.9657818 14.90918,14.1953894 14.8515194,14.4105818 C14.7938587,14.6257743 14.6257743,14.7938587 14.4105818,14.8515194 C14.1953894,14.90918 13.9657818,14.8476568 13.80825,14.690125 L12.9256667,13.80825 C12.681948,13.5645313 12.681948,13.1693853 12.9256667,12.9256667 C13.1693853,12.681948 13.5645313,12.681948 13.80825,12.9256667 Z" id="sun"></path>
            </g>
        </g>
    </g>
</svg>