<?xml version="1.0" encoding="UTF-8"?>
<svg width="17px" height="13px" viewBox="0 0 17 13" version="1.1" xmlns="http://www.w3.org/2000/svg" xmlns:xlink="http://www.w3.org/1999/xlink">
    <!-- Generator: Sketch 48.1 (47250) - http://www.bohemiancoding.com/sketch -->
    <title>email</title>
    <desc>Created with Sketch.</desc>
    <defs></defs>
    <g id="Desktop-HD-Copy-41" stroke="none" stroke-width="1" fill="none" fill-rule="evenodd" transform="translate(-32.000000, -302.000000)">
        <g id="email" transform="translate(32.000000, 302.000000)" fill="#000000" fill-rule="nonzero">
            <path d="M15.5833333,13 L1.41666667,13 C0.634263271,13 0,12.3533002 0,11.5555556 L0,1.44444444 C0,0.646699806 0.634263271,0 1.41666667,0 L15.5833333,0 C16.3657367,0 17,0.646699806 17,1.44444444 L17,11.5555556 C17,12.3533002 16.3657367,13 15.5833333,13 Z M3.81791667,1.44444444 L8.5,6.21761111 L13.1820833,1.44444444 L3.81791667,1.44444444 Z M15.5833333,1.44444444 L15.15125,1.44444444 L9.05958333,7.65555556 C9.04379223,7.6850861 9.02478306,7.71270531 9.00291667,7.73788889 C8.72164517,8.01229116 8.27835483,8.01229116 7.99708333,7.73788889 C7.97521694,7.71270531 7.95620777,7.6850861 7.94041667,7.65555556 L1.84875,1.44444444 L1.41666667,1.44444444 L1.41666667,11.5555556 L15.5833333,11.5555556 L15.5833333,1.44444444 Z" id="letter"></path>
        </g>
    </g>
</svg>