<?xml version="1.0" encoding="UTF-8"?>
<svg width="16px" height="17px" viewBox="0 0 16 17" version="1.1" xmlns="http://www.w3.org/2000/svg" xmlns:xlink="http://www.w3.org/1999/xlink">
    <!-- Generator: Sketch 48.1 (47250) - http://www.bohemiancoding.com/sketch -->
    <title>settings</title>
    <desc>Created with Sketch.</desc>
    <defs></defs>
    <g id="Desktop-HD-Copy-41" stroke="none" stroke-width="1" fill="none" fill-rule="evenodd" transform="translate(-32.000000, -499.000000)">
        <g id="Group-17" transform="translate(32.000000, 497.000000)" fill="#101010">
            <g id="settings" transform="translate(0.000000, 2.000000)">
                <path d="M15.3333333,9.33333333 L10.5733333,9.33333333 C10.2738926,10.5101383 9.21430415,11.3338761 8,11.3338761 C6.78569585,11.3338761 5.72610737,10.5101383 5.42666667,9.33333333 L0.666666667,9.33333333 C0.298476833,9.33333333 0,9.0348565 0,8.66666667 C0,8.29847683 0.298476833,8 0.666666667,8 L5.42666667,8 C5.72610737,6.82319507 6.78569585,5.99945722 8,5.99945722 C9.21430415,5.99945722 10.2738926,6.82319507 10.5733333,8 L15.3333333,8 C15.7015232,8 16,8.29847683 16,8.66666667 C16,9.0348565 15.7015232,9.33333333 15.3333333,9.33333333 Z M8,7.33333333 C7.26362033,7.33333333 6.66666667,7.930287 6.66666667,8.66666667 C6.66666667,9.40304633 7.26362033,10 8,10 C8.73637967,10 9.33333333,9.40304633 9.33333333,8.66666667 C9.33333333,7.930287 8.73637967,7.33333333 8,7.33333333 Z M15.3333333,4 L14.5733333,4 C14.2738926,5.17680493 13.2143042,6.00054278 12,6.00054278 C10.7856958,6.00054278 9.72610737,5.17680493 9.42666667,4 L0.666666667,4 C0.298476833,4 0,3.70152317 0,3.33333333 C0,2.9651435 0.298476833,2.66666667 0.666666667,2.66666667 L9.42666667,2.66666667 C9.72610737,1.48986174 10.7856958,0.666123885 12,0.666123885 C13.2143042,0.666123885 14.2738926,1.48986174 14.5733333,2.66666667 L15.3333333,2.66666667 C15.7015232,2.66666667 16,2.9651435 16,3.33333333 C16,3.70152317 15.7015232,4 15.3333333,4 Z M12,2 C11.2636203,2 10.6666667,2.59695367 10.6666667,3.33333333 C10.6666667,4.069713 11.2636203,4.66666667 12,4.66666667 C12.7363797,4.66666667 13.3333333,4.069713 13.3333333,3.33333333 C13.3333333,2.59695367 12.7363797,2 12,2 Z M0.666666667,13.3333333 L1.42666667,13.3333333 C1.72610737,12.1565284 2.78569585,11.3327906 4,11.3327906 C5.21430415,11.3327906 6.27389263,12.1565284 6.57333333,13.3333333 L15.3333333,13.3333333 C15.7015232,13.3333333 16,13.6318102 16,14 C16,14.3681898 15.7015232,14.6666667 15.3333333,14.6666667 L6.57333333,14.6666667 C6.27389263,15.8434716 5.21430415,16.6672094 4,16.6672094 C2.78569585,16.6672094 1.72610737,15.8434716 1.42666667,14.6666667 L0.666666667,14.6666667 C0.298476833,14.6666667 0,14.3681898 0,14 C0,13.6318102 0.298476833,13.3333333 0.666666667,13.3333333 Z M4,15.3333333 C4.73637967,15.3333333 5.33333333,14.7363797 5.33333333,14 C5.33333333,13.2636203 4.73637967,12.6666667 4,12.6666667 C3.26362033,12.6666667 2.66666667,13.2636203 2.66666667,14 C2.66666667,14.7363797 3.26362033,15.3333333 4,15.3333333 Z" id="sliders"></path>
            </g>
        </g>
    </g>
</svg>