<?xml version="1.0" encoding="UTF-8"?>
<svg width="16px" height="16px" viewBox="0 0 16 16" version="1.1" xmlns="http://www.w3.org/2000/svg" xmlns:xlink="http://www.w3.org/1999/xlink">
    <!-- Generator: Sketch 48.1 (47250) - http://www.bohemiancoding.com/sketch -->
    <title>star</title>
    <desc>Created with Sketch.</desc>
    <defs></defs>
    <g id="Desktop-HD-Copy-41" stroke="none" stroke-width="1" fill="none" fill-rule="evenodd" transform="translate(-33.000000, -102.000000)">
        <g id="star" transform="translate(33.000000, 102.000000)" fill="#000000" fill-rule="nonzero">
            <path d="M15.9424,6.36608 C15.8104865,5.97143529 15.4701084,5.68285386 15.0592,5.61728 L11.0592,5.00416 L9.3248,1.28 C9.14320384,0.8889155 8.75118934,0.638728779 8.32,0.638728779 C7.88881066,0.638728779 7.49679616,0.8889155 7.3152,1.28 L5.5808,5.00288 L1.5808,5.616 C1.16939254,5.68189232 0.828750824,5.97107709 0.696953925,6.3663333 C0.565157025,6.76158951 0.664070583,7.19734256 0.9536,7.49696 L3.8848,10.5152 L3.2064,14.70272 C3.13445122,15.1233421 3.31019891,15.5479398 3.6583738,15.794666 C4.00654869,16.0413923 4.46539582,16.066486 4.8384,15.8592 L8.32,13.92256 L11.8016,15.8592 C11.9665745,15.9492728 12.1512442,15.997199 12.3392,15.99872 C12.6659266,15.9981637 12.9758659,15.8539055 13.1866639,15.6042762 C13.397462,15.354647 13.4877728,15.0249247 13.4336,14.70272 L12.7552,10.5152 L15.6864,7.49696 C15.9760635,7.19729854 16.0747666,6.76127742 15.9424,6.36608 Z M11.8656,9.70432 C11.6228402,9.95027621 11.5132748,10.2980274 11.5712,10.63872 L12.2304,14.72384 L8.8448,12.83584 C8.51853688,12.6540919 8.12146312,12.6540919 7.7952,12.83584 L4.4096,14.72384 L5.0688,10.63872 C5.12672521,10.2980274 5.01715976,9.95027621 4.7744,9.70432 L1.9264,6.76032 L5.8176,6.16128 C6.17334156,6.10409988 6.47770241,5.87451114 6.6304,5.54816 L8.32,1.9168 L10.0096,5.5488 C10.1624613,5.87490413 10.4667935,6.10423165 10.8224,6.16128 L14.7136,6.76096 L11.8656,9.70432 Z"></path>
        </g>
    </g>
</svg>