<?xml version="1.0" encoding="UTF-8"?>
<svg width="28px" height="20px" viewBox="0 0 28 20" version="1.1" xmlns="http://www.w3.org/2000/svg" xmlns:xlink="http://www.w3.org/1999/xlink">
    <!-- Generator: Sketch 48.1 (47250) - http://www.bohemiancoding.com/sketch -->
    <title>bell</title>
    <desc>Created with Sketch.</desc>
    <defs></defs>
    <g id="Desktop-HD-Copy-41" stroke="none" stroke-width="1" fill="none" fill-rule="evenodd" transform="translate(-1161.000000, -30.000000)">
        <g id="bell" transform="translate(1161.000000, 29.000000)">
            <path d="M7.54261364,6.08825284 C7.84444602,6.08825284 8.5615483,6.27911932 8.5615483,6.27911932 C10.5042614,6.72430398 11.8716903,8.5137358 11.8716903,10.5340909 L11.8716903,15.4090909 L11.8716903,15.9721023 L12.268892,16.3711364 L12.600767,16.7045028 L2.39923295,16.7045028 L2.73110795,16.3711364 L3.12830966,15.9721023 L3.12830966,15.4090909 L3.12830966,10.5340909 C3.12830966,8.51377841 4.49573864,6.72430398 6.4384517,6.27911932 C6.4384517,6.27911932 7.20732955,6.08825284 7.45738636,6.08825284 L7.54261364,6.08825284 Z M7.5,3 C6.74991477,3 6.17646307,3.57605114 6.17646307,4.32954545 L6.17646307,4.94995739 C3.66161932,5.52622159 1.7646733,7.83068182 1.7646733,10.5340909 L1.7646733,15.4090909 L0,17.1818182 L0,18.0681818 L15,18.0681818 L15,17.1818182 L13.2353267,15.4090909 L13.2353267,10.5340909 C13.2353267,7.83068182 11.3383381,5.52622159 8.82353693,4.94995739 L8.82353693,4.32954545 C8.82353693,3.57605114 8.25008523,3 7.5,3 Z M9.2646733,18.9545455 L5.73528409,18.9545455 C5.73528409,19.9295881 6.52930398,20.7272727 7.5,20.7272727 C8.47069602,20.7272727 9.2646733,19.9295881 9.2646733,18.9545455 Z" id="Shape" fill="#000000" fill-rule="nonzero" opacity="0.699999988"></path>
            <g id="Group-4-Copy" transform="translate(9.000000, 0.000000)">
                <rect id="Rectangle" fill="#D0021B" x="0" y="1" width="19" height="14" rx="7"></rect>
                <path d="M8.66601562,8.10351562 L8.66601562,7.20117188 L9.69140625,7.20117188 C10.1718774,7.20117188 10.5654282,7.06054828 10.8720703,6.77929688 C11.1787125,6.49804547 11.3320312,6.13867406 11.3320312,5.70117188 C11.3320312,5.27148223 11.1835952,4.92480601 10.8867188,4.66113281 C10.5898423,4.39745962 10.1972681,4.265625 9.70898438,4.265625 C9.22460695,4.265625 8.8310562,4.39355341 8.52832031,4.64941406 C8.22558442,4.90527472 8.05273459,5.25976336 8.00976562,5.71289062 L6.984375,5.71289062 C7.03906277,4.97851195 7.31249754,4.40039273 7.8046875,3.97851562 C8.29687746,3.55663852 8.94530848,3.34570312 9.75,3.34570312 C10.4882849,3.34570312 11.1152318,3.56054473 11.6308594,3.99023438 C12.146487,4.41992402 12.4042969,4.94335629 12.4042969,5.56054688 C12.4042969,6.06445564 12.2734388,6.49023264 12.0117188,6.83789062 C11.7499987,7.18554861 11.3867211,7.41601506 10.921875,7.52929688 L10.921875,7.62304688 C11.4960966,7.697266 11.947264,7.92089657 12.2753906,8.29394531 C12.6035173,8.66699405 12.7675781,9.14257523 12.7675781,9.72070312 C12.7675781,10.4160191 12.4804716,11.0029273 11.90625,11.4814453 C11.3320284,11.9599633 10.6269573,12.1992188 9.79101562,12.1992188 C8.93163633,12.1992188 8.23047146,11.9794944 7.6875,11.5400391 C7.14452854,11.1005837 6.85351582,10.5195349 6.81445312,9.796875 L7.83398438,9.796875 C7.88085961,10.246096 8.08105292,10.6054674 8.43457031,10.875 C8.78808771,11.1445326 9.23632541,11.2792969 9.77929688,11.2792969 C10.3378934,11.2792969 10.7949201,11.1298843 11.1503906,10.8310547 C11.5058612,10.5322251 11.6835938,10.1523461 11.6835938,9.69140625 C11.6835938,9.20312256 11.5097674,8.81640768 11.1621094,8.53125 C10.8144514,8.24609232 10.3398468,8.10351562 9.73828125,8.10351562 L8.66601562,8.10351562 Z" id="3" fill="#FFFFFF"></path>
            </g>
        </g>
    </g>
</svg>