<?xml version="1.0" encoding="UTF-8"?>
<svg width="17px" height="17px" viewBox="0 0 17 17" version="1.1" xmlns="http://www.w3.org/2000/svg" xmlns:xlink="http://www.w3.org/1999/xlink">
    <!-- Generator: Sketch 48.1 (47250) - http://www.bohemiancoding.com/sketch -->
    <title>eventsActive</title>
    <desc>Created with Sketch.</desc>
    <defs></defs>
    <g id="Desktop-HD-Copy-41" stroke="none" stroke-width="1" fill="none" fill-rule="evenodd" transform="translate(-32.000000, -260.000000)">
        <g id="eventsActive" transform="translate(32.000000, 260.000000)" fill="#278BF7" fill-rule="nonzero">
            <path d="M15.5833333,17 L1.41666667,17 C0.634263271,17 0,16.3657367 0,15.5833333 L0,2.83333333 C0,2.05092994 0.634263271,1.41666667 1.41666667,1.41666667 L2.83333333,1.41666667 L2.83333333,2.83333333 L1.41666667,2.83333333 L1.41666667,15.5833333 L15.5833333,15.5833333 L15.5833333,2.83333333 L14.1666667,2.83333333 L14.1666667,1.41666667 L15.5833333,1.41666667 C16.3657367,1.41666667 17,2.05092994 17,2.83333333 L17,15.5833333 C17,16.3657367 16.3657367,17 15.5833333,17 Z M12.0416667,12.0416667 L13.4583333,12.0416667 C13.849535,12.0416667 14.1666667,12.3587983 14.1666667,12.75 C14.1666667,13.1412017 13.849535,13.4583333 13.4583333,13.4583333 L12.0416667,13.4583333 C11.650465,13.4583333 11.3333333,13.1412017 11.3333333,12.75 C11.3333333,12.3587983 11.650465,12.0416667 12.0416667,12.0416667 Z M12.0416667,9.20833333 L13.4583333,9.20833333 C13.849535,9.20833333 14.1666667,9.52546497 14.1666667,9.91666667 C14.1666667,10.3078684 13.849535,10.625 13.4583333,10.625 L12.0416667,10.625 C11.650465,10.625 11.3333333,10.3078684 11.3333333,9.91666667 C11.3333333,9.52546497 11.650465,9.20833333 12.0416667,9.20833333 Z M13.4583333,7.79166667 L12.0416667,7.79166667 C11.650465,7.79166667 11.3333333,7.47453503 11.3333333,7.08333333 C11.3333333,6.69213164 11.650465,6.375 12.0416667,6.375 L13.4583333,6.375 C13.849535,6.375 14.1666667,6.69213164 14.1666667,7.08333333 C14.1666667,7.47453503 13.849535,7.79166667 13.4583333,7.79166667 Z M12.75,4.25 C12.3587983,4.25 12.0416667,3.93286836 12.0416667,3.54166667 L12.0416667,0.708333333 C12.0416667,0.317131636 12.3587983,0 12.75,0 C13.1412017,0 13.4583333,0.317131636 13.4583333,0.708333333 L13.4583333,3.54166667 C13.4583333,3.93286836 13.1412017,4.25 12.75,4.25 Z M9.91666667,1.41666667 L11.3333333,1.41666667 L11.3333333,2.83333333 L9.91666667,2.83333333 L9.91666667,1.41666667 Z M7.79166667,12.0416667 L9.20833333,12.0416667 C9.59953503,12.0416667 9.91666667,12.3587983 9.91666667,12.75 C9.91666667,13.1412017 9.59953503,13.4583333 9.20833333,13.4583333 L7.79166667,13.4583333 C7.40046497,13.4583333 7.08333333,13.1412017 7.08333333,12.75 C7.08333333,12.3587983 7.40046497,12.0416667 7.79166667,12.0416667 Z M7.79166667,9.20833333 L9.20833333,9.20833333 C9.59953503,9.20833333 9.91666667,9.52546497 9.91666667,9.91666667 C9.91666667,10.3078684 9.59953503,10.625 9.20833333,10.625 L7.79166667,10.625 C7.40046497,10.625 7.08333333,10.3078684 7.08333333,9.91666667 C7.08333333,9.52546497 7.40046497,9.20833333 7.79166667,9.20833333 Z M9.20833333,7.79166667 L7.79166667,7.79166667 C7.40046497,7.79166667 7.08333333,7.47453503 7.08333333,7.08333333 C7.08333333,6.69213164 7.40046497,6.375 7.79166667,6.375 L9.20833333,6.375 C9.59953503,6.375 9.91666667,6.69213164 9.91666667,7.08333333 C9.91666667,7.47453503 9.59953503,7.79166667 9.20833333,7.79166667 Z M8.5,4.25 C8.1087983,4.25 7.79166667,3.93286836 7.79166667,3.54166667 L7.79166667,0.708333333 C7.79166667,0.317131636 8.1087983,0 8.5,0 C8.8912017,0 9.20833333,0.317131636 9.20833333,0.708333333 L9.20833333,3.54166667 C9.20833333,3.93286836 8.8912017,4.25 8.5,4.25 Z M5.66666667,1.41666667 L7.08333333,1.41666667 L7.08333333,2.83333333 L5.66666667,2.83333333 L5.66666667,1.41666667 Z M3.54166667,12.0416667 L4.95833333,12.0416667 C5.34953503,12.0416667 5.66666667,12.3587983 5.66666667,12.75 C5.66666667,13.1412017 5.34953503,13.4583333 4.95833333,13.4583333 L3.54166667,13.4583333 C3.15046497,13.4583333 2.83333333,13.1412017 2.83333333,12.75 C2.83333333,12.3587983 3.15046497,12.0416667 3.54166667,12.0416667 Z M3.54166667,9.20833333 L4.95833333,9.20833333 C5.34953503,9.20833333 5.66666667,9.52546497 5.66666667,9.91666667 C5.66666667,10.3078684 5.34953503,10.625 4.95833333,10.625 L3.54166667,10.625 C3.15046497,10.625 2.83333333,10.3078684 2.83333333,9.91666667 C2.83333333,9.52546497 3.15046497,9.20833333 3.54166667,9.20833333 Z M4.95833333,7.79166667 L3.54166667,7.79166667 C3.15046497,7.79166667 2.83333333,7.47453503 2.83333333,7.08333333 C2.83333333,6.69213164 3.15046497,6.375 3.54166667,6.375 L4.95833333,6.375 C5.34953503,6.375 5.66666667,6.69213164 5.66666667,7.08333333 C5.66666667,7.47453503 5.34953503,7.79166667 4.95833333,7.79166667 Z M4.25,4.25 C3.8587983,4.25 3.54166667,3.93286836 3.54166667,3.54166667 L3.54166667,0.708333333 C3.54166667,0.317131636 3.8587983,0 4.25,0 C4.6412017,0 4.95833333,0.317131636 4.95833333,0.708333333 L4.95833333,3.54166667 C4.95833333,3.93286836 4.6412017,4.25 4.25,4.25 Z" id="calendar"></path>
        </g>
    </g>
</svg>