<?xml version="1.0" encoding="UTF-8"?>
<svg width="19px" height="15px" viewBox="0 0 19 15" version="1.1" xmlns="http://www.w3.org/2000/svg" xmlns:xlink="http://www.w3.org/1999/xlink">
    <!-- Generator: Sketch 48.1 (47250) - http://www.bohemiancoding.com/sketch -->
    <title>contacts</title>
    <desc>Created with Sketch.</desc>
    <defs></defs>
    <g id="Desktop-HD-Copy-27" stroke="none" stroke-width="1" fill="none" fill-rule="evenodd" transform="translate(-32.000000, -191.000000)">
        <path d="M45.9864516,199.580645 C44.2939661,199.580645 42.9219355,198.208615 42.9219355,196.516129 C42.9219355,194.823644 44.2939661,193.451613 45.9864516,193.451613 C47.6789371,193.451613 49.0509677,194.823644 49.0509677,196.516129 C49.0509677,198.208615 47.6789371,199.580645 45.9864516,199.580645 Z M45.9864516,194.677419 C44.9709603,194.677419 44.1477419,195.500638 44.1477419,196.516129 C44.1477419,197.53162 44.9709603,198.354839 45.9864516,198.354839 C47.0019429,198.354839 47.8251613,197.53162 47.8251613,196.516129 C47.8251613,195.500638 47.0019429,194.677419 45.9864516,194.677419 Z M40.7706452,202.84129 C40.1560316,201.551915 38.8331339,200.751911 37.4058065,200.806452 C34.6416129,200.806452 33.5322581,203.045387 33.2196774,205.709677 L32,205.709677 C32.3983871,202.384677 33.9674194,199.580645 37.4058065,199.580645 C39.0876965,199.524286 40.6692164,200.379479 41.5429032,201.817742 C41.2365519,202.119093 40.9763315,202.463988 40.7706452,202.84129 Z M37.4058065,198.354839 C35.3748238,198.354839 33.7283871,196.708402 33.7283871,194.677419 C33.7283871,192.646437 35.3748238,191 37.4058065,191 C39.4367891,191 41.0832258,192.646437 41.0832258,194.677419 C41.0832258,196.708402 39.4367891,198.354839 37.4058065,198.354839 Z M37.4058065,192.225806 C36.051818,192.225806 34.9541935,193.323431 34.9541935,194.677419 C34.9541935,196.031408 36.051818,197.129032 37.4058065,197.129032 C38.7597949,197.129032 39.8574194,196.031408 39.8574194,194.677419 C39.8574194,193.323431 38.7597949,192.225806 37.4058065,192.225806 Z M45.9864516,200.806452 C48.6832258,200.806452 49.8967742,203.054581 50.1970968,205.709677 L48.9835484,205.709677 C48.7629032,203.711 47.966129,202.032258 45.9864516,202.032258 C44.0067742,202.032258 43.21,203.712226 42.9893548,205.709677 L41.7758065,205.709677 C42.076129,203.055194 43.2896774,200.806452 45.9864516,200.806452 Z" id="contacts" fill="#2583E8" fill-rule="nonzero"></path>
    </g>
</svg>