<?xml version="1.0" encoding="UTF-8"?>
<svg width="17px" height="16px" viewBox="0 0 17 16" version="1.1" xmlns="http://www.w3.org/2000/svg" xmlns:xlink="http://www.w3.org/1999/xlink">
    <!-- Generator: Sketch 48.1 (47250) - http://www.bohemiancoding.com/sketch -->
    <title>finance</title>
    <desc>Created with Sketch.</desc>
    <defs></defs>
    <g id="Desktop-HD-Copy-41" stroke="none" stroke-width="1" fill="none" fill-rule="evenodd" transform="translate(-32.000000, -340.000000)">
        <g id="Group-16" transform="translate(32.000000, 337.000000)" fill="#000000" fill-rule="nonzero">
            <g id="finance" transform="translate(0.000000, 3.000000)">
                <path d="M15.5833333,15.5833333 L1.41666667,15.5833333 C0.634263271,15.5833333 0,14.9490701 0,14.1666667 L0,1.41666667 C0,0.634263271 0.634263271,0 1.41666667,0 L12.75,0 C13.5324034,0 14.1666667,0.634263271 14.1666667,1.41666667 L14.1666667,2.83333333 L15.5833333,2.83333333 C16.3657367,2.83333333 17,3.4675966 17,4.25 L17,14.1666667 C17,14.9490701 16.3657367,15.5833333 15.5833333,15.5833333 Z M12.75,1.41666667 L1.41666667,1.41666667 L1.41666667,2.83333333 L12.75,2.83333333 L12.75,1.41666667 Z M15.5833333,4.25 L1.41666667,4.25 L1.41666667,14.1666667 L15.5833333,14.1666667 L15.5833333,4.25 Z M12.0416667,7.08333333 C13.2152718,7.08333333 14.1666667,8.03472824 14.1666667,9.20833333 C14.1666667,10.3819384 13.2152718,11.3333333 12.0416667,11.3333333 C10.8680616,11.3333333 9.91666667,10.3819384 9.91666667,9.20833333 C9.91666667,8.03472824 10.8680616,7.08333333 12.0416667,7.08333333 Z M12.0416667,9.91666667 C12.4328684,9.91666667 12.75,9.59953503 12.75,9.20833333 C12.75,8.81713164 12.4328684,8.5 12.0416667,8.5 C11.650465,8.5 11.3333333,8.81713164 11.3333333,9.20833333 C11.3333333,9.59953503 11.650465,9.91666667 12.0416667,9.91666667 Z" id="wallet"></path>
            </g>
        </g>
    </g>
</svg>