<?xml version="1.0" encoding="UTF-8"?>
<svg width="120px" height="29px" viewBox="0 0 120 29" version="1.1" xmlns="http://www.w3.org/2000/svg" xmlns:xlink="http://www.w3.org/1999/xlink">
    <!-- Generator: Sketch 48.1 (47250) - http://www.bohemiancoding.com/sketch -->
    <title>wa_logo_1</title>
    <desc>Created with Sketch.</desc>
    <defs>
        <polygon id="path-1" points="5.24952431e-05 20.1560785 9.94020175 20.1560785 9.94020175 0.106473601 5.24952431e-05 0.106473601"></polygon>
        <polygon id="path-3" points="7.69090308 14.7474777 7.69090308 0.0581166931 0.163837654 0.0581166931 0.163837654 14.7474777 7.69090308 14.7474777"></polygon>
    </defs>
    <g id="Desktop-HD-Copy-41" stroke="none" stroke-width="1" fill="none" fill-rule="evenodd" transform="translate(-32.000000, -26.000000)">
        <g id="wa_logo_1" transform="translate(32.000000, 26.000000)">
            <g id="Group" fill="#8BC440">
                <path d="M7.39493746,8.87397878 C7.11023826,8.87397878 7.08241578,9.93500183 7.08241578,11.7810511 C7.08241578,12.9930679 7.30902024,13.8419217 7.39493746,14.3562553 C7.50762725,13.8419217 7.70710917,12.9930679 7.70710917,11.7810511 C7.70710917,9.93500183 7.67788682,8.87397878 7.39493746,8.87397878 M9.83736613,20.1406963 C8.89997608,20.1406963 8.0765007,19.7474759 7.39493746,19.0510304 C6.6848518,19.7775332 5.88937389,20.1406963 4.95215881,20.1406963 C1.57181513,20.1406963 0.209038619,16.4457688 0.209038619,11.7810511 C0.209038619,8.81404097 0.663472439,5.54239117 1.14695363,3.63375198 L3.98677129,3.63375198 C3.36155295,5.51251067 2.79390439,8.96503475 2.79390439,11.7810511 C2.79390439,14.7793562 3.39060032,17.3844409 4.95215881,17.3844409 C5.29250297,17.3844409 5.60519964,17.1423912 5.83285401,16.8389891 C5.17981318,15.4459212 4.49824995,13.6896903 4.49824995,11.7810511 C4.49824995,7.81419339 5.97476615,6.11790026 7.39493746,6.11790026 C8.81458381,6.11790026 10.291625,7.93406902 10.291625,11.7810511 C10.291625,13.7195708 9.63788421,15.4459212 8.95562103,16.8690465 C9.18362537,17.1423912 9.46832457,17.3844409 9.83736613,17.3844409 C11.3987496,17.3844409 11.9954456,14.7793562 11.9954456,11.7810511 C11.9954456,8.96503475 11.3987496,5.51251067 10.7745812,3.63375198 L13.6150988,3.63375198 C14.0978801,5.54239117 14.5810113,8.81404097 14.5810113,11.7810511 C14.5810113,16.4457688 13.2164849,20.1406963 9.83736613,20.1406963" id="Fill-38"></path>
                <path d="M20.0998362,4.69473967 C20.0998362,5.63464943 19.3594783,6.41985246 18.4789581,6.41985246 C17.5986128,6.41985246 16.8607047,5.63464943 16.8607047,4.69473967 C16.8607047,3.75606755 17.5986128,2.96715157 18.4789581,2.96715157 C19.3594783,2.96715157 20.0998362,3.75606755 20.0998362,4.69473967 L20.0998362,4.69473967 Z M20.9801814,17.3234069 L20.9801814,19.9896671 L15.9803595,19.9896671 L15.9803595,17.3234069 L17.2307962,17.3234069 L17.2307962,10.4192428 C17.2307962,9.69150226 17.7979198,9.08611267 18.4789581,9.08611267 C19.1624461,9.08611267 19.7295697,9.69150226 19.7295697,10.4192428 L19.7295697,17.3234069 L20.9801814,17.3234069 Z" id="Fill-40"></path>
                <path d="M26.5161373,4.08929704 C26.3168303,4.08929704 26.176843,5.39130899 26.176843,7.4198238 C26.176843,8.57172601 26.3478025,10.7823528 26.5161373,11.751259 C26.7154442,10.7823528 26.8578813,8.54078466 26.8578813,7.4198238 C26.8578813,5.42118949 26.7441416,4.08929704 26.5161373,4.08929704 M28.8464011,20.1406079 C28.4763096,20.1406079 28.0493483,19.9296763 27.7954463,19.5352183 C27.3418874,18.7786581 26.9149261,18.1421503 26.5161373,17.5056426 C26.1197982,18.1421503 25.6954616,18.8375351 25.2394529,19.5352183 C24.9832762,19.9296763 24.5584147,20.1406079 24.1881482,20.1406079 C23.5074599,20.1406079 22.9378865,19.5352183 22.9378865,18.8087154 C22.9378865,18.5953085 22.9662339,18.3530819 23.1655409,18.0510944 C23.903624,16.900253 24.5584147,15.8105871 25.0971908,14.7495641 C24.2145708,12.690992 23.7351143,10.17714 23.7351143,7.4198238 C23.7351143,3.02827399 25.0971908,0.0913211803 26.5161373,0.0913211803 C27.9377084,0.0913211803 29.29961,3.02827399 29.29961,7.4198238 C29.29961,10.17714 28.8180537,12.690992 27.9377084,14.7495641 C28.4763096,15.8105871 29.1290005,16.8689581 29.8691834,18.0510944 C30.0091707,18.2933209 30.094738,18.5953085 30.094738,18.8087154 C30.094738,19.5352183 29.5274394,20.1406079 28.8464011,20.1406079" id="Fill-42"></path>
                <path d="M36.2205829,12.2056194 C34.8560565,12.2056194 33.7503317,13.3863413 33.7503317,14.8405847 C33.7503317,16.2948281 34.8560565,17.4755499 36.2205829,17.4755499 C37.5826595,17.4755499 38.6904841,16.2948281 38.6904841,14.8405847 C38.6904841,13.3863413 37.5826595,12.2056194 36.2205829,12.2056194 L36.2205829,12.2056194 Z M39.2031876,19.0795494 C38.5485719,19.6250012 37.4424972,20.1405725 36.2205829,20.1405725 C33.4654575,20.1405725 31.2517331,17.778952 31.2517331,14.8405847 C31.2517331,11.9032783 33.4654575,9.54059688 36.2205829,9.54059688 C37.1270007,9.54059688 37.9525759,9.78264663 38.6904841,10.2370424 L38.6904841,0.2422796 L41.1896076,0.2422796 L41.1896076,20.2915663 L39.2031876,19.0795494 Z" id="Fill-44"></path>
            </g>
            <g id="Group-2" transform="translate(46.639676, 2.211864)">
                <path d="M7.77575943,6.51225216 L5.64602742,11.3578442 L9.90671633,11.3578442 L7.77575943,6.51225216 Z M3.00481676,17.3231594 L0.164474141,17.3231594 L7.80428185,0.0612461895 L15.3870447,17.3231594 L12.5454772,17.3231594 L11.1548782,14.14398 L4.42516305,14.14398 L3.00481676,17.3231594 Z" id="Fill-46" fill="#F06624"></path>
                <g id="Group-50" transform="translate(16.665461, 6.617912)">
                    <mask id="mask-2" fill="white">
                        <use xlink:href="#path-1"></use>
                    </mask>
                    <g id="Clip-49"></g>
                    <path d="M4.96890224,2.92372759 C3.60682566,2.92372759 2.49865108,4.10356542 2.49865108,5.55639434 C2.49865108,7.01311303 3.60682566,8.19259724 4.96890224,8.19259724 C6.33342859,8.19259724 7.43932837,7.01311303 7.43932837,5.55639434 C7.43932837,4.10356542 6.33342859,2.92372759 4.96890224,2.92372759 M4.96890224,10.8577966 C4.06003459,10.8577966 3.2367342,10.6143324 2.49865108,10.1622351 L2.49865108,20.1561139 L5.24952431e-05,20.1561139 L5.24952431e-05,0.106473601 L1.9885723,1.31849043 C2.64091319,0.773215462 3.74926275,0.258881844 4.96890224,0.258881844 C7.72402758,0.258881844 9.94020175,2.61926472 9.94020175,5.55639434 C9.94020175,8.49476161 7.72402758,10.8577966 4.96890224,10.8577966" id="Fill-48" fill="#F06624" mask="url(#mask-2)"></path>
                </g>
                <path d="M28.6691111,17.3232478 L28.6691111,6.72450982 L30.4299766,7.7841184 C31.3103218,7.26872394 32.2191895,6.87674125 33.184752,6.87674125 C35.0285599,6.87674125 36.1960541,8.02634496 36.1960541,10.0248025 C36.1960541,10.7523662 35.6268307,11.3579326 34.9456174,11.3579326 C34.2360567,11.3579326 33.6951807,10.7214248 33.6951807,10.0248025 C33.6951807,9.75163456 33.4696261,9.541587 33.184752,9.541587 C32.5038887,9.541587 31.7374581,9.93374649 31.1677097,10.4493178 L31.1677097,17.3232478 L28.6691111,17.3232478 Z" id="Fill-51" fill="#F06624"></path>
                <path d="M41.1936362,2.0310078 C41.1936362,2.96826546 40.4555531,3.7561206 39.5752079,3.7561206 C38.6924129,3.7561206 37.9543298,2.96826546 37.9543298,2.0310078 C37.9543298,1.09109804 38.6924129,0.303596513 39.5752079,0.303596513 C40.4555531,0.303596513 41.1936362,1.09109804 41.1936362,2.0310078 L41.1936362,2.0310078 Z M42.0738065,14.6607359 L42.0738065,17.3232831 L37.0739845,17.3232831 L37.0739845,14.6607359 L38.3245962,14.6607359 L38.3245962,7.75427326 C38.3245962,7.02653274 38.8941696,6.42114315 39.5752079,6.42114315 C40.2562462,6.42114315 40.8233698,7.02653274 40.8233698,7.75427326 L40.8233698,14.6607359 L42.0738065,14.6607359 Z" id="Fill-53" fill="#F06624"></path>
                <path d="M48.8522547,17.4757091 C46.0974794,17.4757091 43.8809552,15.1126741 43.8809552,12.1743068 C43.8809552,9.23717717 46.0974794,6.87679429 48.8522547,6.87679429 C50.0718942,6.87679429 51.2371136,7.3610706 52.0891114,8.14857213 C52.4306805,8.44967565 52.5423203,8.81389952 52.5423203,9.17723936 C52.5423203,9.90515669 51.9750217,10.5103695 51.2941584,10.5103695 C51.0094592,10.5103695 50.7529325,10.4191367 50.4706831,10.1772637 C50.0150244,9.7516876 49.4762482,9.54164004 48.8522547,9.54164004 C47.4877284,9.54164004 46.3821786,10.7214779 46.3821786,12.1743068 C46.3821786,13.6310255 47.4877284,14.8105097 48.8522547,14.8105097 C49.4762482,14.8105097 49.9604293,14.5985173 50.4136382,14.2350006 C50.6983374,13.9931277 51.0094592,13.8718376 51.2941584,13.8718376 C51.9750217,13.8718376 52.5423203,14.4786416 52.5423203,15.2049677 C52.5423203,15.5382502 52.402158,15.9003524 52.0891114,16.2037544 C51.2371136,16.9912559 50.0718942,17.4757091 48.8522547,17.4757091" id="Fill-55" fill="#F06624"></path>
                <path d="M56.4625601,12.1742361 C56.4625601,13.6309548 57.5705597,14.810439 58.935261,14.810439 C60.2969876,14.810439 61.4028874,13.6309548 61.4028874,12.1742361 C61.4028874,10.7214071 60.2969876,9.54156932 58.935261,9.54156932 C57.5705597,9.54156932 56.4625601,10.7214071 56.4625601,12.1742361 M58.935261,17.4756383 C56.1776859,17.4756383 53.9636115,15.1126033 53.9636115,12.1742361 C53.9636115,9.23728326 56.1776859,6.87672357 58.935261,6.87672357 C61.6875866,6.87672357 63.9041108,9.23728326 63.9041108,12.1742361 C63.9041108,15.1126033 61.6875866,17.4756383 58.935261,17.4756383" id="Fill-57" fill="#F06624"></path>
                <g id="Group-61" transform="translate(65.661022, 2.728143)">
                    <mask id="mask-4" fill="white">
                        <use xlink:href="#path-3"></use>
                    </mask>
                    <g id="Clip-60"></g>
                    <path d="M2.665061,10.7505627 C2.665061,11.4768888 3.23200963,12.0822784 3.9132229,12.0822784 C4.6227836,12.0822784 5.18973222,11.5067693 5.18973222,10.7505627 L5.18973222,10.5985081 C5.18973222,9.87165163 5.75930561,9.265378 6.4403439,9.265378 C7.12365698,9.265378 7.69095557,9.87165163 7.69095557,10.5985081 L7.69095557,10.7505627 C7.69095557,12.9599518 5.98713497,14.7474777 3.9132229,14.7474777 C1.83913584,14.7474777 0.163837654,12.9599518 0.163837654,10.7505627 L0.163837654,0.0581166931 L2.665061,0.0581166931 L2.665061,4.14856298 L5.5883461,4.14856298 C6.26955937,4.14856298 6.83668298,4.75253811 6.83668298,5.47939459 C6.83668298,6.2069583 6.26955937,6.81340873 5.5883461,6.81340873 L2.665061,6.81340873 L2.665061,10.7505627 Z" id="Fill-59" fill="#F06624" mask="url(#mask-4)"></path>
                </g>
            </g>
        </g>
    </g>
</svg>