<?xml version="1.0" encoding="UTF-8"?>
<svg width="16px" height="16px" viewBox="0 0 16 16" version="1.1" xmlns="http://www.w3.org/2000/svg" xmlns:xlink="http://www.w3.org/1999/xlink">
    <!-- Generator: Sketch 48.1 (47250) - http://www.bohemiancoding.com/sketch -->
    <title>website</title>
    <desc>Created with Sketch.</desc>
    <defs></defs>
    <g id="Desktop-HD-Copy-41" stroke="none" stroke-width="1" fill="none" fill-rule="evenodd" transform="translate(-33.000000, -380.000000)">
        <g id="Group-11" transform="translate(33.000000, 377.000000)" fill="#000000" fill-rule="nonzero">
            <g id="website" transform="translate(0.000000, 3.000000)">
                <path d="M13.3333333,12 L12,12 L12,12.6666667 C12,14.5076158 10.5076158,16 8.66666667,16 L3.33333333,16 C1.49238417,16 1.13686838e-13,14.5076158 1.13686838e-13,12.6666667 L1.13686838e-13,4.66666667 C1.13686838e-13,3.930287 0.596953667,3.33333333 1.33333333,3.33333333 L10.6666667,3.33333333 C11.4030463,3.33333333 12,3.930287 12,4.66666667 L12,6.66666667 L13.3333333,6.66666667 C14.8060927,6.66666667 16,7.860574 16,9.33333333 C16,10.8060927 14.8060927,12 13.3333333,12 Z M10.6666667,4.66666667 L1.33333333,4.66666667 L1.33333333,12.6666667 C1.33333333,13.7712362 2.22876383,14.6666667 3.33333333,14.6666667 L8.66666667,14.6666667 C9.77123617,14.6666667 10.6666667,13.7712362 10.6666667,12.6666667 L10.6666667,4.66666667 Z M13.3333333,8 L12,8 L12,10.6666667 L13.3333333,10.6666667 C14.069713,10.6666667 14.6666667,10.069713 14.6666667,9.33333333 C14.6666667,8.59695367 14.069713,8 13.3333333,8 Z M8.66666667,2 C8.29847683,2 8,1.70152317 8,1.33333333 L8,0.666666667 C8,0.298476833 8.29847683,0 8.66666667,0 C9.0348565,0 9.33333333,0.298476833 9.33333333,0.666666667 L9.33333333,1.33333333 C9.33333333,1.70152317 9.0348565,2 8.66666667,2 Z M6,2 C5.63181017,2 5.33333333,1.70152317 5.33333333,1.33333333 L5.33333333,0.666666667 C5.33333333,0.298476833 5.63181017,0 6,0 C6.36818983,0 6.66666667,0.298476833 6.66666667,0.666666667 L6.66666667,1.33333333 C6.66666667,1.70152317 6.36818983,2 6,2 Z M3.33333333,2 C2.9651435,2 2.66666667,1.70152317 2.66666667,1.33333333 L2.66666667,0.666666667 C2.66666667,0.298476833 2.9651435,0 3.33333333,0 C3.70152317,0 4,0.298476833 4,0.666666667 L4,1.33333333 C4,1.70152317 3.70152317,2 3.33333333,2 Z" id="cup"></path>
            </g>
        </g>
    </g>
</svg>